<svg width="478" height="416" viewBox="0 0 478 416" fill="none" xmlns="http://www.w3.org/2000/svg">
<path d="M1 307.5L8.44833 383.639C9.43409 393.715 14.7349 402.871 22.9827 408.744V408.744C44.9611 424.392 75.6339 410.339 78.135 383.475L111.731 22.6338C112.518 14.1808 117.7 6.76756 125.368 3.12504V3.12504C139.445 -3.56141 156.068 4.68941 159.254 19.9443L169.5 69M22 172H191" stroke="black"/>
<g filter="url(#filter0_d_0_1)">
<path d="M419 99L435.5 113L450.5 130.5L459 148.5L465.5 166L470.333 187.452L472.213 199.056C473.07 204.344 473.5 209.691 473.5 215.047V230L470.333 249.212L465.5 268L463.545 274.015C460.532 283.285 456.134 292.046 450.5 300V300L435.5 317.5L419 334.5" stroke="black"/>
</g>
<g filter="url(#filter1_d_0_1)">
<path d="M297 99L279.743 113.03L264.055 130.567L255.165 148.605L248.367 166.142L243.312 187.64L241.399 198.953C240.468 204.461 240 210.037 240 215.623V230.278L243.312 249.53L248.367 268.359L250.361 274.239C253.545 283.624 258.164 292.458 264.055 300.427V300.427L279.743 317.964L297 335" stroke="black"/>
</g>
<path d="M313 171L399 268" stroke="black"/>
<path d="M399 171L313 268" stroke="black"/>
<defs>
<filter id="filter0_d_0_1" x="414.641" y="98.6187" width="63.3588" height="244.229" filterUnits="userSpaceOnUse" color-interpolation-filters="sRGB">
<feFlood flood-opacity="0" result="BackgroundImageFix"/>
<feColorMatrix in="SourceAlpha" type="matrix" values="0 0 0 0 0 0 0 0 0 0 0 0 0 0 0 0 0 0 127 0" result="hardAlpha"/>
<feOffset dy="4"/>
<feGaussianBlur stdDeviation="2"/>
<feComposite in2="hardAlpha" operator="out"/>
<feColorMatrix type="matrix" values="0 0 0 0 0 0 0 0 0 0 0 0 0 0 0 0 0 0 0.25 0"/>
<feBlend mode="normal" in2="BackgroundImageFix" result="effect1_dropShadow_0_1"/>
<feBlend mode="normal" in="SourceGraphic" in2="effect1_dropShadow_0_1" result="shape"/>
</filter>
<filter id="filter1_d_0_1" x="235.5" y="98.612" width="65.8513" height="244.744" filterUnits="userSpaceOnUse" color-interpolation-filters="sRGB">
<feFlood flood-opacity="0" result="BackgroundImageFix"/>
<feColorMatrix in="SourceAlpha" type="matrix" values="0 0 0 0 0 0 0 0 0 0 0 0 0 0 0 0 0 0 127 0" result="hardAlpha"/>
<feOffset dy="4"/>
<feGaussianBlur stdDeviation="2"/>
<feComposite in2="hardAlpha" operator="out"/>
<feColorMatrix type="matrix" values="0 0 0 0 0 0 0 0 0 0 0 0 0 0 0 0 0 0 0.25 0"/>
<feBlend mode="normal" in2="BackgroundImageFix" result="effect1_dropShadow_0_1"/>
<feBlend mode="normal" in="SourceGraphic" in2="effect1_dropShadow_0_1" result="shape"/>
</filter>
</defs>
</svg>
